# xmcd
#
# Track frame offsets: 
#        150
#        24987
#        47245
#        71280
#        104467
#        111082
#        132325
#        154255
#
# Disc length: 2388 seconds
#
# Revision: 0
# Processed by: cddbd v1.5.2PL0 Copyright (c) Steve Scherf et al.
# Submitted via: ExactAudioCopy v0.99pb5
#
DISCID=66095208
DTITLE=Crucifer - Festival of Death
DYEAR=1900
DGENRE=Death Metal
TTITLE0=Festival of Death
TTITLE1=Pieces
TTITLE2=Crucifer
TTITLE3=Atheist
TTITLE4=Mindrape
TTITLE5=Flowers
TTITLE6=Eternal Truth
TTITLE7=Post Nuclear Dream
EXTD=
EXTT0=
EXTT1=
EXTT2=
EXTT3=
EXTT4=
EXTT5=
EXTT6=
EXTT7=
PLAYORDER=
